<?xml version="1.0" standalone="no"?><!DOCTYPE svg PUBLIC "-//W3C//DTD SVG 1.1//EN" "http://www.w3.org/Graphics/SVG/1.1/DTD/svg11.dtd"><svg class="icon" height="512" viewBox="0 0 1024 1024" version="1.1" xmlns="http://www.w3.org/2000/svg"><path d="M663.035 64.362H362.082c-55.826 0-100.318 49.997-100.318 111.634v672.489c0 61.523 44.891 111.635 100.318 111.635h300.953c55.776 0 100.312-49.996 100.312-111.635V175.996c0.001-61.529-44.896-111.634-100.312-111.634z m-204.648 45.532h100.317c3.686 0 6.691 3.342 6.691 7.465 0 4.128-3.006 7.465-6.691 7.465H458.387c-3.692 0-6.686-3.337-6.686-7.465 0-4.123 2.989-7.465 6.686-7.465z m53.89 823.06c-25.317 0-45.867-21.039-45.867-46.964 0-25.92 20.549-46.954 45.867-46.954 25.32 0 45.878 21.034 45.878 46.954 0 25.925-20.552 46.964-45.878 46.964z m216.959-120.633H295.868V176.108h433.368v636.213z" /></svg>